<?xml version="1.0" encoding="utf-8"?>
<!-- Generator: Adobe Illustrator 26.3.1, SVG Export Plug-In . SVG Version: 6.00 Build 0)  -->
<svg version="1.1" id="Layer_1" xmlns="http://www.w3.org/2000/svg" xmlns:xlink="http://www.w3.org/1999/xlink" x="0px" y="0px"
	 viewBox="0 0 1000 1000" style="enable-background:new 0 0 1000 1000;" xml:space="preserve">
<style type="text/css">
	.st0{fill:#d7d8d9;}
</style>
<path class="st0" d="M1000,277.42c0.04-30.9-6.52-60.49-17.39-88.94C958.16,124.5,916.54,74.27,857.46,39.34
	C815.18,14.35,769.6-0.09,719.91-0.05C570.82,0.07,421.73-0.03,272.63,0.06c-7.04,0-14.14,0.49-21.1,1.52
	c-75.19,11.18-137.7,45.23-185.97,104.29C24.78,155.76,0.98,212.53,0.36,277.51C-0.34,351.64,0.2,425.78,0.2,499.92
	s0.17,148.27-0.08,222.41c-0.11,31.32,6.72,61.26,17.84,90.1c18.77,48.65,47.93,90.14,88.94,122.92
	c48.91,39.1,104.12,63.59,167.05,64.07c151.58,1.15,303.18,0.38,454.77,0.35c4.99,0,10.04,0.11,14.96-0.56
	c78.09-10.67,142.97-45.57,192.44-107.21c41.12-51.23,63.9-109.5,63.83-176.01C999.8,569.8,999.79,423.61,1000,277.42z
	 M500.06,758.53c-140.75,0.15-265.58-119.73-257.87-272.4c6.48-128.38,114.66-244.29,257.86-244.78
	c142.45-0.48,260.88,119.82,257.42,258.51C761.05,638.07,642.96,758.38,500.06,758.53z M799.05,237.42
	c-21.26-0.27-36.54-15.93-36.54-37.45c0-22.03,15.65-37.57,37.76-37.48c21.95,0.09,37.35,15.87,37.17,38.08
	C837.25,222.39,821.3,237.7,799.05,237.42z"/>
<path class="st0" d="M499.62,679.86c-94.46,5.05-184.01-81.34-180.51-186.68c2.92-87.7,80.63-178.88,190.16-174.1
	c85.99,3.75,176.31,80.59,171.53,190.03C676.92,598.3,597.83,684.53,499.62,679.86z"/>
</svg>
