<?xml version="1.0" encoding="utf-8"?>
<!-- Generator: Adobe Illustrator 26.3.1, SVG Export Plug-In . SVG Version: 6.00 Build 0)  -->
<svg version="1.1" id="Layer_1" xmlns="http://www.w3.org/2000/svg" xmlns:xlink="http://www.w3.org/1999/xlink" x="0px" y="0px"
	 viewBox="0 0 1000 1000" style="enable-background:new 0 0 1000 1000;" xml:space="preserve">
<style type="text/css">
	.st0{fill:#d7d8d9;}
</style>
<path class="st0" d="M1000,169.35c0.08-30.88-5.64-59.42-21.23-85.83c-30.68-51.95-75.59-82.7-136.6-82.92
	C616.63-0.21,391.1,0.43,165.57,0.06c-25.32-0.04-49.2,4.07-71.62,15.53C35.42,45.49,1.5,92.72,0.71,159.09
	c-1.35,113.63-0.37,227.28-0.37,340.92c0,113.21,0.52,226.42-0.17,339.62c-0.51,84.28,74.41,160.39,160.35,160.22
	c223.36-0.44,446.72-0.36,670.08,0.1c30.78,0.06,59.44-5.5,85.89-21.16c51.97-30.75,82.61-75.8,82.85-136.7
	C1000.22,617.85,999.42,393.6,1000,169.35z M333.58,797.91c0.02,10.6-3.69,14.75-14.42,14.54c-24.71-0.48-49.44-0.59-74.14,0.05
	c-11.87,0.31-15.93-3.94-15.85-15.82c0.41-64.18,0.19-128.36,0.19-192.54c0-63.75-0.03-127.5,0.02-191.24
	c0.01-16.24,0.73-16.93,16.87-16.98c24.28-0.08,48.57,0.31,72.85-0.16c10.66-0.21,14.51,3.8,14.49,14.47
	C333.36,539.45,333.36,668.68,333.58,797.91z M280.58,331.85c-37.32,0.16-70.74-36.09-70.33-73.04
	c0.39-34.84,30.38-72.8,71.79-68.54c38.3-3.46,70.53,29.41,70.5,70.9C352.51,297.78,321.55,331.68,280.58,331.85z M812.28,795.33
	c-0.01,16.22-0.72,16.9-16.89,16.95c-23.85,0.08-47.71-0.44-71.55,0.21c-11.92,0.33-15.87-4.02-15.82-15.86
	c0.37-75.89,0.18-151.79,0.18-227.68c0-25.39-8.68-47.68-25.23-66.6c-29.02-33.19-85.64-31.18-118.14,3.57
	c-15.59,16.67-23.1,36.46-23.14,59.02c-0.14,76.33-0.04,152.66-0.07,228.99c-0.01,17.98-0.36,18.31-18.12,18.35
	c-22.98,0.05-45.97,0.07-68.95-0.01c-16.25-0.06-16.98-0.73-16.99-16.86c-0.05-91.51-0.03-183.01-0.03-274.52
	c0-36.43,0.34-72.86-0.19-109.29c-0.17-11.77,3.75-16.24,15.75-15.93c25.13,0.66,50.3,0.41,75.45,0.12
	c9.41-0.11,13.36,3.61,13.15,13.09c-0.36,16.82-0.1,33.66-0.1,50.49c1.18,0.45,2.35,0.91,3.53,1.36
	c11.12-14.18,21.47-28.98,35.67-40.42c24.41-19.65,51.79-31.13,83.27-32.24c24.88-0.88,49.08,0.66,72.09,12.44
	c35.44,18.15,53.92,48.58,65.41,84.88c9.03,28.52,9.75,58.21,10.28,87.44C813.19,647,812.34,721.17,812.28,795.33z"/>
</svg>
