<?xml version="1.0" encoding="utf-8"?>
<svg  version="1.1" id="KEYDESIGN" xmlns="&ns_svg;" xmlns:xlink="&ns_xlink;" width="3895.86" height="511.99"
	 viewBox="0 0 3895.86 511.99" style="overflow:visible;enable-background:new 0 0 3895.86 511.99;" xml:space="preserve">
<g>
	<path d="M102.67,361.47v143.68H0V6.83h102.67v229.14l45.52-63.14l126.98-166h125.94L224.16,227.4
		L405.9,505.15H284.4L156.17,303.99C156.15,303.95,102.67,361.47,102.67,361.47z"/>
	<path d="M971.4,6.83l104.05,227.26L1179.48,6.83h111.92l-163.93,316.93v181.39h-104.04V323.76L859.15,6.83
		H971.4z"/>
	<path d="M1471.17,425.06h50.27c26.92,0,49.62-6.11,68.11-18.31c18.48-12.21,32.45-30.07,41.92-53.56
		c9.47-23.5,14.21-51.91,14.21-85.22v-24.29c0-25.56-2.69-48.04-8.05-67.43c-5.36-19.39-13.29-35.7-23.79-48.94
		c-10.49-13.23-23.38-23.21-38.68-29.94c-15.28-6.74-32.84-10.09-52.7-10.09h-51.3V425.06z M1368.47,505.15V6.83h102.71h51.3
		c33.32,0,63.83,5.65,91.56,16.96c27.72,11.28,51.74,27.44,72.04,48.43c20.31,20.99,36,46.01,47.06,75.12
		c11.07,29.1,16.59,61.43,16.59,97.02v23.62c0,35.36-5.53,67.65-16.59,96.85c-11.07,29.19-26.7,54.25-46.9,75.13
		c-20.19,20.87-44.26,36.97-72.21,48.26c-27.95,11.28-58.81,16.94-92.58,16.94h-50.27H1368.47z"/>
	<path d="M2189.56,6.83v80.44h-231.35v122.64h197.15v78.01h-197.15c0,0,0,137.13,0.02,137.13h231.67v80.08
		h-334.37V6.83H2189.56z"/>
	<path d="M2540.76,374.76c0-8.91-1.31-16.95-3.93-24.14c-2.62-7.19-7.47-13.8-14.55-19.85
		c-7.08-6.05-16.99-12.04-29.77-17.97c-12.79-5.93-29.33-12.09-49.63-18.48c-22.59-7.3-43.97-15.52-64.18-24.64
		c-20.18-9.13-37.98-19.79-53.38-32c-15.4-12.21-27.5-26.41-36.28-42.61c-8.79-16.2-13.18-35.04-13.18-56.47
		c0-20.77,4.57-39.65,13.69-56.64c9.13-17.01,21.9-31.61,38.33-43.82c16.43-12.2,35.89-21.62,58.35-28.22
		c22.47-6.63,47.17-9.93,74.1-9.93c36.73,0,68.79,6.62,96.16,19.85c27.38,13.23,48.66,31.38,63.83,54.42
		c15.18,23.04,22.76,49.4,22.76,79.06h-101.99c0-14.61-3.02-27.44-9.06-38.49c-6.05-11.08-15.18-19.87-27.39-26.36
		c-12.21-6.5-27.55-9.76-46.03-9.76c-17.79,0-32.62,2.75-44.48,8.22c-11.86,5.46-20.77,12.72-26.69,21.73
		c-5.93,9-8.91,19.09-8.91,30.29c0,8.43,2.12,16.08,6.33,22.94c4.23,6.83,10.55,13.21,19,19.15c8.44,5.93,18.82,11.53,31.14,16.77
		c12.33,5.25,26.59,10.4,42.79,15.42c27.15,8.2,51.04,17.43,71.69,27.71c20.65,10.26,37.94,21.78,51.85,34.57
		c13.91,12.77,24.41,27.27,31.48,43.46c7.07,16.19,10.61,34.57,10.61,55.1c0,21.67-4.22,41.08-12.67,58.18
		c-8.44,17.11-20.65,31.6-36.63,43.46c-15.96,11.87-35.03,20.89-57.15,27.06c-22.12,6.15-46.88,9.23-74.26,9.23
		c-24.63,0-48.95-3.25-72.9-9.76c-23.96-6.51-45.68-16.38-65.2-29.6c-19.52-13.24-35.08-30.13-46.72-50.65
		c-11.64-20.53-17.45-44.84-17.45-72.9h103.02c0,15.51,2.38,28.64,7.19,39.37c4.78,10.72,11.57,19.39,20.36,26.01
		c8.79,6.62,19.26,11.46,31.47,14.54c12.21,3.08,25.6,4.62,40.22,4.62c17.8,0,32.45-2.56,43.97-7.7
		c11.53-5.13,20.08-12.15,25.67-21.05C2537.98,395.98,2540.76,385.92,2540.76,374.76z"/>
	<path d="M2853.63,6.83v498.31H2751.3V6.83H2853.63z"/>
	<path d="M3375.93,347.47"/>
	<path d="M3895.86,6.83v498.31h-102.69l-200.2-334.03v334.03H3490.3V6.83h102.67l200.56,334.38V6.83H3895.86z
		"/>
	<path d="M3177.81,511.9c-29.5-0.69-56.57-5.95-81.16-15.79c-26.45-10.62-49.22-26.19-68.27-46.72
		c-19.05-20.5-33.72-45.63-43.99-75.41c-10.26-29.76-15.4-63.76-15.4-102.08v-31.15c0-38.29,4.97-72.39,14.9-102.24
		c9.91-29.88,24.12-55.07,42.6-75.58c18.48-20.53,40.48-36.15,66.04-46.86C3118.1,5.35,3146.51,0,3177.77,0
		c43.35,0,78.94,7.01,106.78,21.05c27.84,14.03,49.11,33.43,63.82,58.18c14.72,24.76,23.8,53.1,27.22,85.04H3276
		c-2.52-16.89-7.31-31.61-14.38-44.15c-7.07-12.54-17.17-22.35-30.29-29.43c-13.12-7.07-30.05-10.6-50.82-10.6
		c-17.11,0-32.34,3.48-45.68,10.43c-13.35,6.94-24.58,17.15-33.7,30.61c-9.13,13.43-16.09,30.1-20.89,49.92
		c-4.79,19.86-7.2,42.83-7.2,69.08v31.76c0,26.01,2.53,48.96,7.53,68.9c5.01,19.98,12.49,36.71,22.42,50.26
		c9.92,13.58,22.19,23.77,36.79,30.63c13.03,6.07,27.98,9.46,44.83,10.12v-0.06c46.06,0,91.39-22.21,91.39-113.68h-96.52v-73.24
		h196.45v73.24c0,85.06-33.91,193.93-198.15,193.93L3177.81,511.9z"/>
	<path d="M811.18,6.83v80.44H579.82v122.64h197.14v78.01H579.82c0,0,0,137.13,0.02,137.13h231.69v80.08
		H477.15V6.83H811.18z"/>
</g>
</svg>
