<?xml version="1.0" encoding="UTF-8" standalone="no"?>
<svg
   version="1.1"
   id="KEYDESIGN"
   width="121.74801"
   height="16"
   viewBox="0 0 121.74801 16"
   style="overflow:visible"
   xml:space="preserve"
   sodipodi:docname="logo.svg"
   inkscape:version="1.4.1 (93de688d07, 2025-03-30)"
   xmlns:inkscape="http://www.inkscape.org/namespaces/inkscape"
   xmlns:sodipodi="http://sodipodi.sourceforge.net/DTD/sodipodi-0.dtd"
   xmlns="http://www.w3.org/2000/svg"
   xmlns:svg="http://www.w3.org/2000/svg"><defs
   id="defs10" /><sodipodi:namedview
   id="namedview10"
   pagecolor="#ffffff"
   bordercolor="#000000"
   borderopacity="0.25"
   inkscape:showpageshadow="2"
   inkscape:pageopacity="0.0"
   inkscape:pagecheckerboard="0"
   inkscape:deskcolor="#d1d1d1"
   inkscape:zoom="3.284462"
   inkscape:cx="102.90879"
   inkscape:cy="94.688264"
   inkscape:window-width="2536"
   inkscape:window-height="1368"
   inkscape:window-x="0"
   inkscape:window-y="0"
   inkscape:window-maximized="1"
   inkscape:current-layer="g10" />
<g
   id="g10"
   transform="matrix(0.03124939,0,0,0.03124939,0.0023801,3.1240695e-4)"
   style="fill:#000000">
	<path
   d="M 102.67,361.47 V 505.15 H 0 V 6.83 h 102.67 v 229.14 l 45.52,-63.14 126.98,-166 H 401.11 L 224.16,227.4 405.9,505.15 H 284.4 L 156.17,303.99 c -0.02,-0.04 -53.5,57.48 -53.5,57.48 z"
   id="path1"
   style="fill:#000000" />
	<path
   d="M 971.4,6.83 1075.45,234.09 1179.48,6.83 H 1291.4 L 1127.47,323.76 V 505.15 H 1023.43 V 323.76 L 859.15,6.83 Z"
   id="path2"
   style="fill:#000000" />
	<path
   d="m 1471.17,425.06 h 50.27 c 26.92,0 49.62,-6.11 68.11,-18.31 18.48,-12.21 32.45,-30.07 41.92,-53.56 9.47,-23.5 14.21,-51.91 14.21,-85.22 v -24.29 c 0,-25.56 -2.69,-48.04 -8.05,-67.43 -5.36,-19.39 -13.29,-35.7 -23.79,-48.94 -10.49,-13.23 -23.38,-23.21 -38.68,-29.94 -15.28,-6.74 -32.84,-10.09 -52.7,-10.09 h -51.3 v 337.78 z m -102.7,80.09 V 6.83 h 102.71 51.3 c 33.32,0 63.83,5.65 91.56,16.96 27.72,11.28 51.74,27.44 72.04,48.43 20.31,20.99 36,46.01 47.06,75.12 11.07,29.1 16.59,61.43 16.59,97.02 v 23.62 c 0,35.36 -5.53,67.65 -16.59,96.85 -11.07,29.19 -26.7,54.25 -46.9,75.13 -20.19,20.87 -44.26,36.97 -72.21,48.26 -27.95,11.28 -58.81,16.94 -92.58,16.94 h -50.27 -102.71 z"
   id="path3"
   style="fill:#000000" />
	<path
   d="m 2189.56,6.83 v 80.44 h -231.35 v 122.64 h 197.15 v 78.01 h -197.15 c 0,0 0,137.13 0.02,137.13 h 231.67 v 80.08 H 1855.53 V 6.83 Z"
   id="path4"
   style="fill:#000000" />
	<path
   d="m 2540.76,374.76 c 0,-8.91 -1.31,-16.95 -3.93,-24.14 -2.62,-7.19 -7.47,-13.8 -14.55,-19.85 -7.08,-6.05 -16.99,-12.04 -29.77,-17.97 -12.79,-5.93 -29.33,-12.09 -49.63,-18.48 -22.59,-7.3 -43.97,-15.52 -64.18,-24.64 -20.18,-9.13 -37.98,-19.79 -53.38,-32 -15.4,-12.21 -27.5,-26.41 -36.28,-42.61 -8.79,-16.2 -13.18,-35.04 -13.18,-56.47 0,-20.77 4.57,-39.65 13.69,-56.64 9.13,-17.01 21.9,-31.61 38.33,-43.82 16.43,-12.2 35.89,-21.62 58.35,-28.22 22.47,-6.63 47.17,-9.93 74.1,-9.93 36.73,0 68.79,6.62 96.16,19.85 27.38,13.23 48.66,31.38 63.83,54.42 15.18,23.04 22.76,49.4 22.76,79.06 h -101.99 c 0,-14.61 -3.02,-27.44 -9.06,-38.49 -6.05,-11.08 -15.18,-19.87 -27.39,-26.36 -12.21,-6.5 -27.55,-9.76 -46.03,-9.76 -17.79,0 -32.62,2.75 -44.48,8.22 -11.86,5.46 -20.77,12.72 -26.69,21.73 -5.93,9 -8.91,19.09 -8.91,30.29 0,8.43 2.12,16.08 6.33,22.94 4.23,6.83 10.55,13.21 19,19.15 8.44,5.93 18.82,11.53 31.14,16.77 12.33,5.25 26.59,10.4 42.79,15.42 27.15,8.2 51.04,17.43 71.69,27.71 20.65,10.26 37.94,21.78 51.85,34.57 13.91,12.77 24.41,27.27 31.48,43.46 7.07,16.19 10.61,34.57 10.61,55.1 0,21.67 -4.22,41.08 -12.67,58.18 -8.44,17.11 -20.65,31.6 -36.63,43.46 -15.96,11.87 -35.03,20.89 -57.15,27.06 -22.12,6.15 -46.88,9.23 -74.26,9.23 -24.63,0 -48.95,-3.25 -72.9,-9.76 -23.96,-6.51 -45.68,-16.38 -65.2,-29.6 -19.52,-13.24 -35.08,-30.13 -46.72,-50.65 -11.64,-20.53 -17.45,-44.84 -17.45,-72.9 h 103.02 c 0,15.51 2.38,28.64 7.19,39.37 4.78,10.72 11.57,19.39 20.36,26.01 8.79,6.62 19.26,11.46 31.47,14.54 12.21,3.08 25.6,4.62 40.22,4.62 17.8,0 32.45,-2.56 43.97,-7.7 11.53,-5.13 20.08,-12.15 25.67,-21.05 5.64,-8.9 8.42,-18.96 8.42,-30.12 z"
   id="path5"
   style="fill:#000000" />
	<path
   d="M 2853.63,6.83 V 505.14 H 2751.3 V 6.83 Z"
   id="path6"
   style="fill:#000000" />
	<path
   d="M 3375.93,347.47"
   id="path7"
   style="fill:#000000" />
	<path
   d="M 3895.86,6.83 V 505.14 H 3793.17 L 3592.97,171.11 V 505.14 H 3490.3 V 6.83 h 102.67 l 200.56,334.38 V 6.83 Z"
   id="path8"
   style="fill:#000000" />
	<path
   d="m 3177.81,511.9 c -29.5,-0.69 -56.57,-5.95 -81.16,-15.79 -26.45,-10.62 -49.22,-26.19 -68.27,-46.72 -19.05,-20.5 -33.72,-45.63 -43.99,-75.41 -10.26,-29.76 -15.4,-63.76 -15.4,-102.08 v -31.15 c 0,-38.29 4.97,-72.39 14.9,-102.24 9.91,-29.88 24.12,-55.07 42.6,-75.58 18.48,-20.53 40.48,-36.15 66.04,-46.86 C 3118.1,5.35 3146.51,0 3177.77,0 c 43.35,0 78.94,7.01 106.78,21.05 27.84,14.03 49.11,33.43 63.82,58.18 14.72,24.76 23.8,53.1 27.22,85.04 H 3276 c -2.52,-16.89 -7.31,-31.61 -14.38,-44.15 -7.07,-12.54 -17.17,-22.35 -30.29,-29.43 -13.12,-7.07 -30.05,-10.6 -50.82,-10.6 -17.11,0 -32.34,3.48 -45.68,10.43 -13.35,6.94 -24.58,17.15 -33.7,30.61 -9.13,13.43 -16.09,30.1 -20.89,49.92 -4.79,19.86 -7.2,42.83 -7.2,69.08 v 31.76 c 0,26.01 2.53,48.96 7.53,68.9 5.01,19.98 12.49,36.71 22.42,50.26 9.92,13.58 22.19,23.77 36.79,30.63 13.03,6.07 27.98,9.46 44.83,10.12 v -0.06 c 46.06,0 91.39,-22.21 91.39,-113.68 h -96.52 v -73.24 h 196.45 v 73.24 c 0,85.06 -33.91,193.93 -198.15,193.93 z"
   id="path9"
   style="fill:#000000" />
	<path
   d="M 811.18,6.83 V 87.27 H 579.82 v 122.64 h 197.14 v 78.01 H 579.82 c 0,0 0,137.13 0.02,137.13 h 231.69 v 80.08 H 477.15 V 6.83 Z"
   id="path10"
   style="fill:#000000" />
</g>
</svg>
