<?xml version="1.0" encoding="utf-8"?>
<!-- Generator: Adobe Illustrator 26.3.1, SVG Export Plug-In . SVG Version: 6.00 Build 0)  -->
<svg version="1.1" id="Layer_1" xmlns="http://www.w3.org/2000/svg" xmlns:xlink="http://www.w3.org/1999/xlink" x="0px" y="0px"
	 viewBox="0 0 1000 1000" style="enable-background:new 0 0 1000 1000;" xml:space="preserve">
<style type="text/css">
	.st0{fill:#189ABA;}
	.st1{fill:#FFFFFF;}
</style>
<image style="overflow:visible;opacity:0.2;enable-background:new    ;" width="342" height="342" xlink:href="46FAEA38.png"  transform="matrix(2.4849 0 0 2.4849 105.0877 105.0877)">
</image>
<g>
	<path class="st0" d="M850,500c0,193.4-156.8,350-350,350c-193.2,0-350-156.6-350-350s156.8-350,350-350
		C693.2,150,850,306.6,850,500z"/>
</g>
<g>
	<path class="st1" d="M354.8,498.7c0,10.7-2.9,18.7-8.8,24.1c-5.9,5.4-14.1,8.1-24.6,8.1h-17.7v-63.1h19.5c6.4,0,12,1.2,16.7,3.5
		c4.7,2.4,8.4,5.8,11,10.4C353.6,486.3,354.8,492,354.8,498.7z M344.9,499c0-8-1.9-13.8-5.8-17.6c-3.9-3.7-9.3-5.6-16.4-5.6h-9.4v47
		h7.7C336.9,522.9,344.9,514.9,344.9,499z"/>
	<path class="st1" d="M372.3,465.1c1.4,0,2.7,0.4,3.7,1.2c1.1,0.8,1.6,2.2,1.6,4.2c0,1.9-0.5,3.3-1.6,4.1c-1.1,0.9-2.3,1.3-3.7,1.3
		c-1.5,0-2.8-0.4-3.8-1.3s-1.5-2.2-1.5-4.1c0-1.9,0.5-3.3,1.5-4.2S370.7,465.1,372.3,465.1z M376.9,483.3v47.7h-9.4v-47.7H376.9z"/>
	<path class="st1" d="M423.2,517.5c0,4.7-1.7,8.2-5.1,10.7c-3.4,2.4-8.2,3.7-14.2,3.7c-3.4,0-6.2-0.3-8.6-0.7
		c-2.4-0.5-4.6-1.2-6.6-2.2v-8.2c2.1,1,4.5,1.9,7.3,2.7c2.8,0.8,5.5,1.2,8.2,1.2c3.5,0,6.1-0.6,7.6-1.7c1.6-1.1,2.3-2.6,2.3-4.5
		c0-1.1-0.3-2-0.9-2.9c-0.6-0.9-1.7-1.7-3.3-2.7c-1.6-0.9-4-2-7.1-3.1c-3.1-1.2-5.6-2.5-7.7-3.7c-2.1-1.2-3.7-2.7-4.8-4.3
		c-1.1-1.7-1.7-3.8-1.7-6.5c0-4.1,1.7-7.3,5-9.5c3.3-2.2,7.7-3.3,13.2-3.3c2.9,0,5.6,0.3,8.2,0.9c2.6,0.6,5.1,1.4,7.5,2.5l-3.1,7.2
		c-2.1-0.9-4.2-1.6-6.4-2.3c-2.2-0.6-4.4-0.9-6.6-0.9c-2.8,0-5,0.4-6.5,1.3c-1.5,0.9-2.2,2.1-2.2,3.7c0,1.1,0.4,2.1,1.1,2.9
		c0.7,0.8,1.9,1.7,3.6,2.5c1.7,0.8,4,1.8,6.9,3c2.9,1.1,5.5,2.3,7.6,3.4c2.1,1.2,3.7,2.6,4.8,4.3
		C422.6,512.7,423.2,514.8,423.2,517.5z"/>
	<path class="st1" d="M453.5,531.8c-6.6,0-11.9-2-15.9-5.9c-4-3.9-6-10.1-6-18.5c0-5.9,1-10.7,2.9-14.3c1.9-3.7,4.6-6.4,8-8.1
		c3.4-1.7,7.3-2.6,11.7-2.6c2.7,0,5.1,0.3,7.5,0.8c2.3,0.6,4.3,1.2,5.8,1.9l-2.8,7.6c-1.7-0.6-3.4-1.2-5.3-1.7s-3.6-0.7-5.3-0.7
		c-8.6,0-12.9,5.7-12.9,17c0,5.4,1.1,9.5,3.2,12.4c2.1,2.8,5.2,4.2,9.4,4.2c2.7,0,5-0.3,7-0.9c2-0.6,3.9-1.4,5.6-2.3v8.1
		c-1.7,1-3.6,1.7-5.6,2.2C458.9,531.6,456.4,531.8,453.5,531.8z"/>
	<path class="st1" d="M519.7,507.1c0,7.9-2,14-6.1,18.3s-9.5,6.5-16.4,6.5c-4.3,0-8.1-1-11.5-2.9c-3.3-1.9-6-4.8-7.9-8.4
		c-1.9-3.7-2.9-8.1-2.9-13.4c0-7.9,2-14,6-18.3c4-4.3,9.5-6.4,16.4-6.4c4.4,0,8.2,1,11.5,2.9c3.3,1.9,6,4.7,7.9,8.4
		C518.7,497.3,519.7,501.8,519.7,507.1z M484.6,507.1c0,5.4,1,9.6,3.1,12.6s5.3,4.5,9.7,4.5c4.4,0,7.6-1.5,9.7-4.5
		c2-3,3.1-7.2,3.1-12.6c0-5.4-1-9.6-3.1-12.5c-2.1-2.9-5.3-4.4-9.7-4.4c-4.4,0-7.6,1.5-9.6,4.4C485.6,497.5,484.6,501.6,484.6,507.1
		z"/>
	<path class="st1" d="M540.4,530.9l-18-47.7h9.9l9.9,27.9c0.6,1.8,1.3,3.9,1.9,6.1c0.6,2.3,1.1,4.1,1.2,5.6h0.4
		c0.2-1.5,0.7-3.4,1.4-5.7c0.7-2.3,1.4-4.3,1.9-6.1l9.9-27.9h9.9l-18.1,47.7L540.4,530.9L540.4,530.9z"/>
	<path class="st1" d="M595,482.4c6.3,0,11.2,1.9,14.8,5.8c3.6,3.9,5.4,9.1,5.4,15.8v5.1h-32c0.1,4.9,1.4,8.6,3.8,11.2
		c2.4,2.6,5.9,3.9,10.3,3.9c3.1,0,5.8-0.3,8.2-0.8c2.4-0.6,4.8-1.4,7.4-2.5v7.8c-2.4,1.1-4.8,1.9-7.3,2.4c-2.4,0.5-5.3,0.8-8.7,0.8
		c-4.7,0-8.7-0.9-12.2-2.7c-3.5-1.8-6.3-4.6-8.2-8.2c-2-3.6-3-8.1-3-13.4c0-5.4,0.9-9.9,2.7-13.6c1.8-3.7,4.3-6.6,7.5-8.5
		C586.9,483.4,590.7,482.4,595,482.4z M595,489.6c-3.4,0-6.1,1.1-8.1,3.3c-2,2.2-3.2,5.3-3.6,9.3h22.5c-0.1-3.7-1-6.7-2.7-9.1
		C601.3,490.8,598.6,489.6,595,489.6z"/>
	<path class="st1" d="M650.3,482.4c0.8,0,1.7,0,2.7,0.1c1,0.1,1.8,0.2,2.5,0.3l-1,8.8c-1.5-0.4-3.1-0.6-4.8-0.6
		c-2.4,0-4.6,0.6-6.7,1.8c-2.1,1.2-3.8,2.9-5,5.1c-1.3,2.2-1.9,4.9-1.9,8v25.1h-9.4v-47.7h7.4l1.2,8.5h0.4c1.5-2.5,3.5-4.7,5.9-6.6
		C644.2,483.3,647,482.4,650.3,482.4z"/>
	<path class="st1" d="M657.2,483.3h10.1l9.9,27.1c0.8,2.1,1.4,4.1,2,6c0.6,1.9,1,3.8,1.3,5.6h0.4c0.3-1.5,0.8-3.3,1.4-5.4
		c0.6-2.1,1.3-4.2,2.1-6.3l9.4-27h10.1l-20.4,54.1c-1.7,4.6-4,8.2-6.9,10.8c-2.9,2.6-6.6,3.9-11.2,3.9c-1.5,0-2.7-0.1-3.8-0.2
		c-1.1-0.1-2-0.3-2.7-0.5V544c0.6,0.1,1.4,0.2,2.3,0.4c0.9,0.1,1.9,0.2,2.9,0.2c2.7,0,4.9-0.8,6.5-2.3c1.7-1.6,2.9-3.6,3.9-6.1
		l1.9-5.1L657.2,483.3z"/>
</g>
</svg>
