<?xml version="1.0" encoding="utf-8"?>
<!-- Generator: Adobe Illustrator 26.3.1, SVG Export Plug-In . SVG Version: 6.00 Build 0)  -->
<svg version="1.1" id="Layer_1" xmlns="http://www.w3.org/2000/svg" xmlns:xlink="http://www.w3.org/1999/xlink" x="0px" y="0px"
	 viewBox="0 0 1000 1000" style="enable-background:new 0 0 1000 1000;" xml:space="preserve">
<style type="text/css">
	.st0{fill:#929292;}
</style>
<g>
	<path class="st0" d="M344.66,677.02c-3.33,0-6.02-2.7-6.02-6.02v-373.3c0-3.33,2.7-6.02,6.02-6.02c3.33,0,6.02,2.7,6.02,6.02V671
		C350.68,674.32,347.98,677.02,344.66,677.02z"/>
	<path class="st0" d="M655.34,715.55c-3.33,0-6.02-2.7-6.02-6.02v-24.08c0-3.33,2.7-6.02,6.02-6.02s6.02,2.7,6.02,6.02v24.08
		C661.37,712.86,658.67,715.55,655.34,715.55z M655.34,667.38c-3.33,0-6.02-2.7-6.02-6.02v-24.08c0-3.33,2.7-6.02,6.02-6.02
		s6.02,2.7,6.02,6.02v24.08C661.37,664.69,658.67,667.38,655.34,667.38z M655.34,619.22c-3.33,0-6.02-2.7-6.02-6.02v-24.08
		c0-3.33,2.7-6.02,6.02-6.02s6.02,2.7,6.02,6.02v24.08C661.37,616.52,658.67,619.22,655.34,619.22z M655.34,571.05
		c-3.33,0-6.02-2.7-6.02-6.02v-24.08c0-3.33,2.7-6.02,6.02-6.02s6.02,2.7,6.02,6.02v24.08
		C661.37,568.35,658.67,571.05,655.34,571.05z M655.34,522.88c-3.33,0-6.02-2.7-6.02-6.02v-24.08c0-3.33,2.7-6.02,6.02-6.02
		s6.02,2.7,6.02,6.02v24.08C661.37,520.18,658.67,522.88,655.34,522.88z M655.34,474.71c-3.33,0-6.02-2.7-6.02-6.02v-24.08
		c0-3.33,2.7-6.02,6.02-6.02s6.02,2.7,6.02,6.02v24.08C661.37,472.02,658.67,474.71,655.34,474.71z M655.34,426.54
		c-3.33,0-6.02-2.7-6.02-6.02v-24.08c0-3.33,2.7-6.02,6.02-6.02s6.02,2.7,6.02,6.02v24.08
		C661.37,423.85,658.67,426.54,655.34,426.54z M655.34,378.37c-3.33,0-6.02-2.7-6.02-6.02v-24.08c0-3.33,2.7-6.02,6.02-6.02
		s6.02,2.7,6.02,6.02v24.08C661.37,375.68,658.67,378.37,655.34,378.37z"/>
	<polygon class="st0" points="384.98,646.91 344.66,716.76 304.34,646.91 	"/>
	<polygon class="st0" points="615.02,353.09 655.34,283.24 695.66,353.09 	"/>
</g>
</svg>
