<?xml version="1.0" encoding="utf-8"?>
<!-- Generator: Adobe Illustrator 12.0.0, SVG Export Plug-In . SVG Version: 6.00 Build 51448)  -->
<!DOCTYPE svg PUBLIC "-//W3C//DTD SVG 1.1//EN" "http://www.w3.org/Graphics/SVG/1.1/DTD/svg11.dtd" [
	<!ENTITY ns_svg "http://www.w3.org/2000/svg">
	<!ENTITY ns_xlink "http://www.w3.org/1999/xlink">
]>
<svg  version="1.1" xmlns="&ns_svg;" xmlns:xlink="&ns_xlink;" width="500" height="500" viewBox="0 0 500 500"
	 overflow="visible" enable-background="new 0 0 500 500" xml:space="preserve">
<g id="in" display="none">
	<g display="inline">
		<g>
			<path fill="#D7D8D9" d="M425,0H75C33.579,0,0,33.579,0,75v350c0,41.421,33.579,75,75,75h350c41.421,0,75-33.579,75-75V75
				C500,33.579,466.421,0,425,0z M166.875,407.5H113.75v-210h53.125V407.5z M139.688,166.875c-20.193,0-36.563-16.37-36.563-36.563
				c0-20.193,16.369-36.563,36.563-36.563c20.193,0,36.563,16.369,36.563,36.563C176.25,150.505,159.88,166.875,139.688,166.875z
				 M407.5,407.5h-53.125V287.709c-0.209-24.166-10.625-48.542-41.041-48.542c-28.542,0-42.084,23.125-42.084,45.208V407.5h-53.125
				v-210h53.125v33.125c0,0,19.166-38.541,66.667-37.291c47.499,1.25,69.167,37.917,69.583,90.209V407.5z"/>
		</g>
	</g>
</g>
<g id="instagram">
	<g>
		<g>
			<path fill="#D7D8D9" d="M250,160c-49.706,0-90,40.294-90,90c0,49.705,40.294,90,90,90c49.705,0,90-40.295,90-90
				C340,200.294,299.705,160,250,160z M358.974,0H141.025C63.139,0,0,63.139,0,141.025v217.949C0,436.86,63.139,500,141.025,500
				h217.949C436.86,500,500,436.86,500,358.974V141.025C500,63.139,436.86,0,358.974,0z M250,378.438
				c-70.934,0-128.438-57.503-128.438-128.438c0-70.934,57.504-128.438,128.438-128.438c70.935,0,128.438,57.504,128.438,128.438
				C378.438,320.935,320.935,378.438,250,378.438z M399.609,119.766c-11.046,0-20-8.954-20-20s8.954-20,20-20s20,8.954,20,20
				S410.655,119.766,399.609,119.766z"/>
		</g>
	</g>
</g>
</svg>
