<?xml version="1.0" encoding="utf-8"?>
<!-- Generator: Adobe Illustrator 12.0.0, SVG Export Plug-In . SVG Version: 6.00 Build 51448)  -->
<!DOCTYPE svg PUBLIC "-//W3C//DTD SVG 1.1//EN" "http://www.w3.org/Graphics/SVG/1.1/DTD/svg11.dtd" [
	<!ENTITY ns_svg "http://www.w3.org/2000/svg">
	<!ENTITY ns_xlink "http://www.w3.org/1999/xlink">
]>
<svg  version="1.1" xmlns="&ns_svg;" xmlns:xlink="&ns_xlink;" width="500" height="500" viewBox="0 0 500 500"
	 overflow="visible" enable-background="new 0 0 500 500" xml:space="preserve">
<g id="in">
	<g>
		<g>
			<path fill="#D7D8D9" d="M425,0H75C33.579,0,0,33.579,0,75v350c0,41.421,33.579,75,75,75h350c41.421,0,75-33.579,75-75V75
				C500,33.579,466.421,0,425,0z M166.875,407.5H113.75v-210h53.125V407.5z M139.688,166.875c-20.193,0-36.563-16.37-36.563-36.563
				c0-20.193,16.369-36.563,36.563-36.563c20.193,0,36.563,16.369,36.563,36.563C176.25,150.505,159.88,166.875,139.688,166.875z
				 M407.5,407.5h-53.125V287.709c-0.209-24.166-10.625-48.542-41.041-48.542c-28.542,0-42.084,23.125-42.084,45.208V407.5h-53.125
				v-210h53.125v33.125c0,0,19.166-38.541,66.667-37.291c47.499,1.25,69.167,37.917,69.583,90.209V407.5z"/>
		</g>
	</g>
</g>
<g id="instagram" display="none">
	<g display="inline">
		<g>
			<path fill="#D7D8D9" d="M250,161.8c-48.711,0-88.2,39.489-88.2,88.2c0,48.711,39.489,88.2,88.2,88.2
				c48.711,0,88.2-39.489,88.2-88.2C338.2,201.289,298.711,161.8,250,161.8z M356.794,5H143.205C66.876,5,5,66.876,5,143.205
				v213.589C5,433.123,66.876,495,143.205,495h213.589C433.123,495,495,433.123,495,356.794V143.205C495,66.876,433.123,5,356.794,5
				z M250,375.869c-69.515,0-125.869-56.354-125.869-125.869c0-69.515,56.354-125.869,125.869-125.869
				c69.516,0,125.869,56.354,125.869,125.869C375.869,319.516,319.516,375.869,250,375.869z M396.617,122.37
				c-10.825,0-19.6-8.775-19.6-19.6c0-10.825,8.774-19.6,19.6-19.6s19.6,8.775,19.6,19.6
				C416.217,113.595,407.442,122.37,396.617,122.37z"/>
		</g>
	</g>
</g>
</svg>
